# xmcd
#
# Track frame offsets:
#	150
#	11408
#	21420
#	32284
#	42641
#	52998
#	62746
#	74892
#	85848
#	95607
#	107163
#	119021
#	129973
#	140626
#	151241
#	160697
#	169547
#	179904
#	192966
#	205417
#	220274
#	232088
#	245431
#	256380
#
# Disc length: 3558 seconds
#
# Revision: 0
# Processed by: cddbd v1.5.2PL0 Copyright (c) Steve Scherf et al.
# Submitted via: audiograbber 1.83.01
#
DISCID=610de418
DTITLE=Dolly Parton - As Long As I Love
DYEAR=1970
DGENRE=Country
TTITLE0=Dumb Blond
TTITLE1=Your Ole Handy Man
TTITLE2=I Don't Want To Throw Rice
TTITLE3=Put I Off Until Tomorrow
TTITLE4=I Wasted My Tears
TTITLE5=Something Fishy
TTITLE6=Fuel To The Flame
TTITLE7=The Giving And The Taking
TTITLE8=I'm In No Condition
TTITLE9=The Company You Keep
TTITLE10=I've Lived My Life
TTITLE11=The Little Things
TTITLE12=Why, Why, Why
TTITLE13=I Wound Ease
TTITLE14=I Don't Want You Around Me An
TTITLE15=Hillbilly Willy
TTITLE16=This Boy Has Been Hurt
TTITLE17=Daddy Won't Be Home Anymore
TTITLE18=As Long As I Love
TTITLE19=A Habit I Can't Break
TTITLE20=I'm Not Worth The Tears
TTITLE21=I Don't Trust Me Around You
TTITLE22=I Couldn't Wait Forever
TTITLE23=Too Lonely Too Long
EXTD=
EXTT0=
EXTT1=
EXTT2=
EXTT3=
EXTT4=
EXTT5=
EXTT6=
EXTT7=
EXTT8=
EXTT9=
EXTT10=
EXTT11=
EXTT12=
EXTT13=
EXTT14=
EXTT15=
EXTT16=
EXTT17=
EXTT18=
EXTT19=
EXTT20=
EXTT21=
EXTT22=
EXTT23=
PLAYORDER=
